<svg width="371" height="912" viewBox="0 0 371 912" fill="none" xmlns="http://www.w3.org/2000/svg">
<path d="M456.253 90.7497C458.505 90.7497 460.774 90.8356 463.048 91.0304L493.417 92.5715C501.706 93.5798 507.235 94.5422 507.304 94.5479L507.951 94.6683L508.3 95.2355C508.346 95.3329 514.11 104.9 519.099 114.25C521.66 118.982 524.066 123.679 525.825 127.197C525.837 127.231 527.584 130.703 528.375 132.668L544.072 136.73C545.831 137.211 547.675 137.664 549.6 138.139C553.066 138.987 556.973 139.949 560.915 141.267L589.112 151.591C591.192 152.393 593.128 153.349 595.007 154.283C596.05 154.799 597.064 155.309 598.095 155.779L613.747 163.318C619.006 165.73 622.518 167.58 624.792 169.138L628.699 171.522L627.21 174.002L623.228 171.567C621.011 170.066 617.642 168.296 612.521 165.942L596.858 158.402C595.838 157.933 594.801 157.411 593.724 156.884C591.914 155.985 590.029 155.051 588.11 154.312L559.969 144.006C556.188 142.74 552.493 141.84 548.924 140.964C546.965 140.477 545.086 140.013 543.327 139.531L525.882 135.023L525.882 134.186C525.59 133.476 524.662 131.276 523.241 128.52C521.483 125.009 519.099 120.328 516.562 115.63C512.288 107.65 507.464 99.5035 506.158 97.3093C504.491 97.0286 499.667 96.2666 493.176 95.476L462.865 93.935C457.382 93.4595 451.899 93.7001 446.784 94.0381L419.313 95.4359C418.763 95.9515 417.749 97.0057 416.438 98.5181L409.334 106.699L399.228 118.896L386.275 120.861C381.686 121.72 376.095 123.192 370.182 124.751C366.745 125.662 363.187 126.601 359.618 127.478C352.033 129.07 344.895 131.734 338.616 134.066C336.823 134.742 335.127 135.378 333.535 135.939L321.246 140.425L317.093 138.832C315.483 138.208 313.466 137.434 311.564 136.896L302.736 134.272L289.8 140.5C288.448 141.216 286.913 141.926 285.314 142.659C282.37 144.023 279.328 145.438 276.343 147.368L261.316 156.495C259.557 157.617 257.724 158.712 255.902 159.789C252.579 161.759 249.446 163.627 246.604 165.758L221.999 184.159L217.41 183.942L208.793 184.016L196.442 184.366L181.896 197.657L167.998 212.901C166.634 214.471 165.179 216.046 163.701 217.645C159.909 221.793 155.956 226.078 152.679 230.839L149.568 234.986C140.751 246.668 132.439 257.713 127.254 267.2L116.982 284.146C117.097 284.914 117.383 286.569 117.956 288.804L120.883 300.531C123.026 308.82 125.386 316.858 125.409 316.938L125.575 317.471L120.419 328.184C118.821 332.126 117.005 337.127 115.091 342.409C114.026 345.354 112.932 348.384 111.803 351.409C111.276 352.916 110.697 354.434 110.136 355.952C109.105 358.696 108.131 361.28 107.375 363.852L101.823 385.456L109.019 398.707L118.036 412.376L116.575 421.972C116.386 423.731 116.037 425.742 115.67 427.873C114.954 432.106 114.135 436.89 114.146 441.708L112.657 471.046L109.769 470.908L111.259 441.645C111.236 436.661 112.078 431.74 112.811 427.397C113.178 425.318 113.505 423.364 113.705 421.588L115.017 413.035L106.538 400.202L98.7412 385.84L104.59 363.085C105.41 360.358 106.435 357.596 107.432 354.938C107.993 353.443 108.549 351.942 109.076 350.429C110.205 347.382 111.316 344.351 112.376 341.412C114.312 336.101 116.123 331.083 117.767 327.01L122.465 317.219C121.915 315.277 119.904 308.356 118.076 301.235L115.143 289.508C114.307 286.174 114.06 284.077 114.037 283.986L113.98 283.499L124.745 265.745C129.981 256.126 138.374 245 147.259 233.227L150.336 229.143C153.693 224.256 157.709 219.902 161.57 215.68C163.025 214.099 164.457 212.529 165.832 210.965L179.84 195.606L195.285 181.478L217.461 181.037L221.088 181.215L244.863 163.427C247.83 161.21 251.176 159.216 254.418 157.291C256.212 156.22 258.022 155.16 259.798 154.031L274.802 144.911C277.924 142.894 281.201 141.37 284.1 140.03C285.652 139.314 287.13 138.626 288.488 137.91L302.484 131.167L312.366 134.106C314.383 134.673 316.462 135.475 318.13 136.123L321.263 137.326L332.543 133.207C334.142 132.639 335.82 132.015 337.591 131.35C343.99 128.973 351.208 126.28 358.959 124.642C362.471 123.788 366.006 122.849 369.432 121.949C375.396 120.38 381.044 118.89 385.782 118.008L397.687 116.197L407.128 104.82L414.243 96.6333C416.248 94.3073 417.623 93.0069 417.692 92.9496L418.07 92.5945L446.606 91.1392C449.711 90.9158 452.954 90.7497 456.253 90.7497Z" fill="url(#paint0_linear)"/>
<path d="M112.656 470.872L114.391 505.16C114.861 508.964 115.497 513.014 116.139 517.133C116.54 519.637 116.946 522.163 117.302 524.695C117.737 527.061 118.075 529.507 118.396 531.925C118.992 536.222 119.525 540.283 120.653 544.082L128.043 572.835L129.842 577.779L129.407 578.398C129.35 578.478 123.386 586.991 117.726 596.043C112.982 603.519 108.439 611.402 106.795 614.295L107.86 617.246C108.422 618.603 109.281 620.362 110.278 622.407C110.851 623.582 111.464 624.848 112.1 626.206C113.366 628.703 114.695 631.545 116.127 634.581C118.911 640.43 122.057 647.065 125.551 653.441L141.34 679.433C142.658 681.805 144.101 683.649 145.356 685.271C146.026 686.118 146.611 686.88 147.08 687.585L148.982 690.14L163.654 693.325L179.042 696.224L179.386 696.78C179.386 696.786 180.016 697.765 181.379 699.192L187.544 705.952C189.337 707.842 191.313 710.06 193.427 712.426C197.254 716.734 201.608 721.603 206.294 726.037L226.706 744.593C228.465 746.323 230.172 747.555 231.685 748.649C232.481 749.205 233.186 749.721 233.776 750.202L236.933 752.556L238.903 762.691L240.84 771.874L243.693 774C244.197 774.361 244.77 774.796 245.371 775.254C247.227 776.669 249.548 778.423 252.418 780.032C255.059 781.614 257.946 783.378 261.017 785.257C266.981 788.901 273.741 793.031 280.558 796.978L310.051 811.18C312.634 812.389 315.006 813.22 317.109 813.959C318.209 814.348 319.205 814.692 320.03 815.036L324.361 816.606L330.852 828.333L337.24 839.269C337.933 839.544 339.509 840.129 341.903 840.827L376.208 849.656C381.009 850.612 386.079 851.369 391.424 852.165C394.134 852.572 396.849 852.973 399.559 853.408C412.334 855.883 425.528 856.49 436.126 856.972C438.813 857.092 441.363 857.206 443.757 857.344C453.645 858.117 460.801 857.756 463.282 857.584C464.76 856.25 470.397 851.117 475.656 846.052C480.846 841.085 485.785 836.101 487.228 834.635L487.228 833.804L488.678 833.787C489.795 833.764 493.902 833.615 499.643 832.561L524.317 828.797C528.121 828.373 531.782 827.416 535.317 826.488L558.834 820.438C560.146 818.445 563.532 813.1 566.499 807.285L575.224 790.367L575.94 792.281C583.159 789.932 624.052 771.405 626.739 768.489L627.644 769.319L629.208 768.483L629.082 770.179C627.306 772.757 583.846 793.094 575.969 795.22L569.066 808.591C566.001 814.641 562.455 820.186 561.177 822.134L561.177 822.827L536.044 829.289C532.406 830.246 528.637 831.226 524.69 831.661L500.118 835.414C494.905 836.37 490.941 836.605 489.274 836.663C487.841 838.118 482.874 843.148 477.65 848.143C471.531 854.027 464.914 860.002 464.845 860.065L463.866 860.947L463.35 860.472C460.606 860.661 453.382 860.987 443.545 860.226C441.197 860.094 438.653 859.973 435.983 859.853C425.287 859.372 411.985 858.77 399.061 856.261C396.397 855.831 393.681 855.43 390.994 855.024C385.603 854.227 380.51 853.471 375.555 852.474L341.124 843.617C335.745 842.053 334.925 841.589 334.794 840.856L328.326 829.771L322.345 818.96L318.999 817.74C318.14 817.391 317.2 817.058 316.146 816.692C314.089 815.97 311.534 815.059 308.807 813.793L279.2 799.534C272.263 795.518 265.491 791.376 259.504 787.72C256.428 785.847 253.564 784.088 250.968 782.53C247.949 780.84 245.555 779.018 243.618 777.552C243.017 777.099 242.478 776.687 241.974 776.326L238.227 773.524L234.297 754.195L231.983 752.459C231.387 751.972 230.728 751.502 230.001 750.981C228.477 749.887 226.575 748.529 224.707 746.673L204.318 728.151C199.517 723.608 195.129 718.687 191.262 714.333C189.182 711.996 187.223 709.813 185.413 707.911L179.26 701.151C178.309 700.171 177.673 699.335 177.289 698.831L163.081 696.144L147.315 692.724L144.72 689.241C144.239 688.53 143.689 687.826 143.076 687.041C141.821 685.408 140.24 683.386 138.848 680.871L123.059 654.879C119.49 648.382 116.316 641.697 113.526 635.813C112.106 632.8 110.753 629.969 109.51 627.46C108.852 626.085 108.256 624.831 107.677 623.662C106.657 621.554 105.775 619.738 105.179 618.288L103.615 614.02L103.948 613.43C105.363 610.932 110.215 602.476 115.285 594.485C120.109 586.791 125.144 579.469 126.623 577.338L125.282 573.672L117.886 544.844C116.712 540.879 116.116 536.52 115.549 532.303C115.222 529.926 114.901 527.525 114.46 525.148C114.093 522.581 113.692 520.066 113.297 517.568C112.638 513.421 112.008 509.33 111.527 505.389L109.78 471.01L112.656 470.872Z" fill="url(#paint1_linear)"/>
<g opacity="0.35">
<path d="M455.714 139.747C490.78 140.601 522.925 145.362 551.461 153.903C556.428 155.319 561.32 157.152 566.029 158.933C568.636 159.919 571.243 160.893 573.861 161.809L584.923 165.877L595.78 171.102C598.289 172.379 600.781 173.548 603.256 174.699C607.73 176.796 612.353 178.967 616.73 181.574L636.197 193.399C664.83 212.888 686.537 231.61 702.715 250.745C709.607 257.677 715.416 265.565 721.031 273.191C723.294 276.273 725.539 279.321 727.842 282.288C730.592 285.766 732.786 289.507 734.9 293.116C736.017 295.012 737.117 296.903 738.292 298.724C739.512 300.781 740.687 302.672 741.838 304.551C743.963 307.994 746.066 311.385 747.893 314.874C773.971 364.71 781.505 406.222 783.676 426.531L785.166 436.189C785.389 438.487 785.481 440.486 785.567 442.388L787.01 470.746L778.744 471.17L777.311 442.749C777.22 440.973 777.157 439.123 776.962 437.209L775.484 427.59C773.358 407.671 766.02 367.328 740.572 318.713C738.836 315.401 736.837 312.164 734.797 308.893C733.611 306.968 732.425 305.032 731.262 303.061C730.111 301.285 728.937 299.303 727.762 297.292C725.705 293.769 723.746 290.446 721.34 287.387C718.968 284.339 716.677 281.228 714.356 278.083C708.931 270.699 703.311 263.068 696.62 256.331C680.699 237.528 659.548 219.293 631.723 200.348L612.456 188.661C608.475 186.278 604.23 184.29 599.744 182.187C597.183 180.99 594.617 179.781 592.102 178.503L581.687 173.473L571.059 169.583C568.447 168.678 565.789 167.67 563.113 166.662C558.547 164.943 553.827 163.173 549.129 161.827C521.258 153.491 489.835 148.833 455.708 147.997C421.758 148.833 390.353 153.491 362.533 161.815C357.767 163.167 353.058 164.943 348.492 166.662C345.805 167.67 343.141 168.678 340.471 169.606L329.552 173.622L319.435 178.532C316.971 179.775 314.422 180.984 311.872 182.181C307.387 184.284 303.136 186.272 299.103 188.672L279.699 200.462C252.063 219.293 230.912 237.528 215.203 256.084C208.288 263.068 202.668 270.699 197.231 278.083C194.917 281.228 192.62 284.339 190.282 287.358C187.842 290.44 185.905 293.763 183.826 297.286C182.663 299.297 181.488 301.279 180.245 303.199C179.168 305.02 177.976 306.957 176.785 308.882C174.757 312.153 172.757 315.39 171.01 318.707C145.579 367.317 138.252 407.659 136.144 427.39L134.603 437.433C134.46 439.111 134.368 440.962 134.288 442.737L132.856 471.159L124.589 470.735L126.044 442.377C126.118 440.475 126.199 438.475 126.405 436.407L127.952 426.336C130.089 406.21 137.622 364.698 163.7 314.863C165.533 311.379 167.642 307.982 169.767 304.539C170.918 302.666 172.081 300.775 173.227 298.862C174.493 296.897 175.599 295.006 176.705 293.11C178.83 289.501 181.013 285.766 183.786 282.26C186.054 279.315 188.306 276.267 190.574 273.185C196.194 265.56 201.992 257.671 209.119 250.498C225.085 231.605 246.769 212.888 275.213 193.507L294.852 181.591C299.263 178.962 303.892 176.79 308.355 174.694C310.83 173.542 313.31 172.373 315.762 171.13L326.315 166.026L337.67 161.821C340.368 160.887 342.963 159.913 345.57 158.928C350.29 157.146 355.183 155.313 360.207 153.881C388.691 145.367 420.842 140.607 455.714 139.747Z" fill="url(#paint2_linear)"/>
</g>
<path opacity="0.35" d="M455.807 115.447L456.403 115.47C481.736 116.358 514.654 118.484 544.616 127.077C546.633 127.644 548.821 128.171 550.981 128.704C555.478 129.815 560.136 130.967 564.874 132.645L583.034 139.297C591.886 142.081 600.29 146.234 607.709 149.901C610.608 151.327 613.449 152.737 616.256 154.014L623.784 157.641C626.099 158.844 627.823 159.898 629.525 160.935L658.392 179.01L680.019 195.182L660.214 221.667L632.847 201.684L612.16 189.081C611.106 188.434 610.058 187.763 608.929 187.173L602.238 183.965C599.442 182.699 596.285 181.135 593.049 179.548C586.392 176.26 579.5 172.857 572.362 170.588L553.662 163.771C550.609 162.694 546.954 161.777 543.047 160.814C540.572 160.213 538.103 159.589 535.616 158.907C509.2 151.327 479.175 149.38 455.801 148.543C432.45 149.38 402.419 151.322 376.135 158.872C373.506 159.6 371.042 160.207 368.584 160.814C364.677 161.777 360.999 162.688 357.774 163.828L339.94 170.359C332.12 172.862 325.228 176.26 318.548 179.548C315.323 181.146 312.172 182.705 309.05 184.125L302.158 187.437C301.562 187.775 300.479 188.451 299.425 189.11L275.169 203.89L251.406 221.673L231.589 195.188L257.249 176.093L282.032 160.975C283.757 159.915 285.492 158.855 287.337 157.893L295.048 154.169C298.171 152.742 301.012 151.345 303.934 149.907C311.33 146.246 319.734 142.104 329.267 139.068L346.597 132.714C351.507 130.967 356.164 129.821 360.673 128.71C362.833 128.177 365.004 127.644 367.164 127.048C396.971 118.489 429.901 116.364 455.246 115.47L455.807 115.447Z" fill="url(#paint3_linear)"/>
<path d="M132.872 470.736L134.304 499.146C134.384 500.922 134.47 502.772 134.653 504.697L136.143 514.31C138.268 534.224 145.596 574.573 171.026 623.188C172.774 626.494 174.779 629.736 176.801 633.002C177.987 634.921 179.184 636.857 180.347 638.828C181.499 640.604 182.673 642.592 183.836 644.597C185.916 648.115 187.852 651.443 190.27 654.502C192.63 657.544 194.927 660.661 197.242 663.806C202.679 671.191 208.299 678.827 214.99 685.559C230.922 704.361 252.073 722.596 279.875 741.547L299.142 753.246C303.135 755.623 307.386 757.605 311.877 759.714C314.426 760.905 316.982 762.108 319.508 763.386L329.923 768.416L340.545 772.306C343.151 773.211 345.815 774.219 348.502 775.222C353.068 776.94 357.777 778.716 362.475 780.057C390.357 788.398 421.769 793.044 455.919 793.886C489.845 793.05 521.263 788.398 549.094 780.074C553.837 778.716 558.558 776.94 563.124 775.222C565.799 774.219 568.457 773.211 571.156 772.289L582.052 768.255L592.181 763.351C594.633 762.108 597.194 760.905 599.754 759.714C604.24 757.605 608.48 755.623 612.501 753.223L631.928 741.427C659.564 722.596 680.715 704.361 696.407 685.811C703.322 678.827 708.942 671.185 714.367 663.806C716.681 660.661 718.979 657.55 721.328 654.525C723.757 651.449 725.716 648.115 727.773 644.603C728.947 642.598 730.121 640.61 731.365 638.69C732.442 636.863 733.627 634.927 734.813 633.007C736.847 629.736 738.852 626.499 740.6 623.182C766.03 574.573 773.375 534.224 775.477 514.499L777.012 504.468C777.167 502.778 777.236 500.928 777.328 499.152L778.76 470.742L787.027 471.166L785.583 499.513C785.491 501.426 785.405 503.42 785.205 505.488L783.669 515.565C781.521 535.685 773.988 577.196 747.921 627.021C746.088 630.515 743.98 633.918 741.854 637.361C740.703 639.229 739.528 641.12 738.405 643.039C737.128 645.009 736.028 646.889 734.916 648.785C732.803 652.4 730.608 656.129 727.836 659.635C725.555 662.574 723.304 665.634 721.041 668.704C715.427 676.335 709.618 684.224 702.502 691.391C686.547 710.279 664.841 729.001 636.397 748.376L616.769 760.309C612.358 762.933 607.741 765.093 603.266 767.201C600.791 768.359 598.299 769.527 595.859 770.765L585.295 775.869L573.951 780.074C571.253 781.008 568.647 781.988 566.04 782.967C561.331 784.743 556.438 786.576 551.414 788.009C522.936 796.528 490.791 801.294 455.925 802.153C420.847 801.294 388.702 796.528 360.177 787.991C355.199 786.576 350.307 784.743 345.586 782.967C342.979 781.988 340.384 781.008 337.766 780.097L326.709 776.029L315.853 770.805C313.327 769.527 310.84 768.358 308.365 767.201C303.902 765.099 299.268 762.933 294.891 760.332L275.413 748.502C246.78 729.012 225.096 710.29 208.906 691.156C202.002 684.235 196.205 676.341 190.585 668.716C188.316 665.639 186.065 662.58 183.785 659.624C181.023 656.141 178.84 652.411 176.715 648.796C175.609 646.9 174.498 645.015 173.324 643.199C172.092 641.131 170.929 639.24 169.777 637.373C167.652 633.93 165.549 630.527 163.722 627.049C137.627 577.208 130.099 535.696 127.951 515.393L126.45 505.728C126.215 503.431 126.135 501.437 126.06 499.524L124.605 471.177L132.872 470.736Z" fill="url(#paint4_linear)"/>
<path opacity="0.24" d="M251.399 720.232L278.777 740.214L299.453 752.818C300.507 753.465 301.567 754.135 302.695 754.726L309.364 757.928C312.159 759.2 315.316 760.758 318.553 762.356C325.221 765.645 332.113 769.042 339.251 771.311L357.95 778.134C360.992 779.211 364.676 780.122 368.56 781.084C371.035 781.691 373.504 782.304 375.991 782.992C402.418 790.571 432.449 792.531 455.806 793.361C479.18 792.525 509.211 790.571 535.495 783.032C538.102 782.304 540.576 781.691 543.034 781.084C546.941 780.128 550.619 779.211 553.845 778.077L571.667 771.546C579.499 769.042 586.39 765.645 593.059 762.345C596.29 760.752 599.447 759.2 602.569 757.779L609.449 754.468C610.062 754.13 611.139 753.454 612.199 752.795L636.444 738.009L660.207 720.232L680.024 746.711L654.375 765.805L629.581 780.918C627.868 781.972 626.12 783.044 624.276 784.006L616.565 787.73C613.431 789.162 610.589 790.566 607.691 792.004C600.283 795.659 591.879 799.801 582.357 802.831L565.027 809.19C560.106 810.926 555.449 812.078 550.951 813.189C548.78 813.722 546.609 814.255 544.438 814.856C514.63 823.415 481.712 825.535 456.379 826.428L455.783 826.451L455.21 826.428C429.877 825.541 396.947 823.415 366.996 814.816C364.963 814.255 362.791 813.716 360.632 813.189C356.123 812.078 351.477 810.926 346.722 809.248L328.55 802.59C319.71 799.801 311.294 795.659 303.898 791.998C300.988 790.566 298.146 789.15 295.339 787.873L287.811 784.252C285.497 783.049 283.773 782.001 282.083 780.952L253.203 762.872L231.565 746.699L251.399 720.232Z" fill="url(#paint5_linear)"/>
<path opacity="0.12" d="M456.69 67.3536C488.446 67.3536 515.211 70.9055 534.644 74.6522C570.529 82.6268 602.777 93.2483 625.521 104.586C629.325 106.448 632.871 108.138 636.097 109.673C641.568 112.297 646.111 114.468 649.548 116.296L657.752 121.285L654.527 126.579L646.472 121.681C643.258 119.968 638.795 117.842 633.427 115.27C630.185 113.723 626.621 112.028 622.777 110.148C600.452 99.0172 568.708 88.5735 533.383 80.7249C503.765 75.0017 456.616 69.7425 400.679 77.3104C350.563 84.0361 300.893 101.074 257.044 126.608C213.229 151.849 173.597 186.343 142.409 226.371C113.598 263.351 91.7765 303.705 79.2875 343.068C76.3428 350.212 74.5554 357.299 72.8424 364.145L71.3415 369.977C70.6139 373.065 69.789 376.153 68.9697 379.189C67.5489 384.5 66.2084 389.513 65.435 394.388L62.0664 416.524C61.7857 418.759 61.419 420.982 61.0581 423.153C60.3764 427.329 59.7175 431.282 59.729 434.891L57.9072 471.098L51.7085 470.783L53.5418 434.742C53.5074 430.789 54.2006 426.584 54.9511 422.133C55.289 420.042 55.6443 417.882 55.925 415.654L59.3108 393.443C60.13 388.218 61.5165 383.05 62.983 377.568C63.7793 374.595 64.5929 371.57 65.3319 368.465L66.8214 362.627C68.6031 355.563 70.4363 348.259 73.4784 340.943C86.0648 301.133 108.241 260.103 137.505 222.55C169.18 181.897 209.442 146.865 253.939 121.234C298.47 95.3049 348.936 77.9807 399.86 71.1575C420.06 68.4363 439.137 67.3536 456.69 67.3536Z" fill="url(#paint6_linear)"/>
<path opacity="0.25" d="M427.699 50.0303L428.942 74.7963L424.748 75.0083C424.032 75.0656 422.778 75.1286 421.357 75.1802C419.254 75.2661 416.682 75.3635 413.714 75.7072C410.77 76.1999 406.708 76.8015 402.176 77.4775C393.549 78.755 383.781 80.1929 372.713 82.2496C333.704 90.7226 291.488 107.039 257.252 126.929L239.911 137.471C236.038 139.791 232.4 141.991 229.37 144.46L202.427 164.694L172.974 191.803L160.8 205.198C151.153 215.109 144.215 224.498 138.635 232.032L127.739 246.64C126.628 248.067 126.106 248.869 125.946 249.104L104.732 236.277C104.732 236.277 105.729 234.547 108.009 231.608L118.687 217.303C124.405 209.586 132.213 199.022 142.743 188.217L158.744 170.939L187.073 145.216L214.096 124.924C218.112 121.653 222.69 118.892 227.107 116.233L244.586 105.618C281.188 84.3463 326.034 67.0221 367.814 57.9476C379.696 55.7305 390.146 54.1895 398.539 52.9578C402.927 52.3104 406.84 51.7203 410.254 51.1588C414.551 50.6547 417.753 50.5173 420.36 50.4141C421.42 50.3626 422.365 50.3339 423.156 50.2709L427.699 50.0303Z" fill="url(#paint7_linear)"/>
<path d="M57.9073 470.799L59.7291 506.839C59.7176 510.615 60.3765 514.568 61.0583 518.75C61.4192 520.915 61.7858 523.144 62.078 525.453L65.4351 547.515C66.2085 552.401 67.549 557.408 68.9698 562.719C69.7891 565.75 70.614 568.843 71.3759 572.017L72.8426 577.758C74.5555 584.609 76.3429 591.684 79.1959 598.576C91.7709 638.203 113.592 678.552 142.403 715.538C173.585 755.566 213.218 790.065 257.027 815.295C300.887 840.829 350.557 857.878 400.673 864.598C456.61 872.166 503.759 866.907 533.458 861.172C568.702 853.341 600.446 842.903 622.748 831.777C626.621 829.887 630.179 828.185 633.421 826.638C638.795 824.072 643.258 821.941 646.615 820.153L654.527 815.341L657.752 820.634L649.709 825.533C646.117 827.446 641.574 829.617 636.103 832.241C632.877 833.771 629.331 835.467 625.493 837.346C602.778 848.666 570.53 859.287 534.735 867.245C504.487 873.088 456.622 878.422 399.86 870.745C348.936 863.922 298.475 846.609 253.927 820.663C209.437 795.043 169.18 760.005 137.505 719.353C108.241 681.794 86.0648 640.77 73.3868 600.713C70.4364 593.638 68.6032 586.339 66.8215 579.281L65.3549 573.53C64.593 570.339 63.7794 567.308 62.9831 564.34C61.5166 558.864 60.1301 553.69 59.3109 548.471L55.9481 526.323C55.6444 524.026 55.2892 521.866 54.9512 519.764C54.2007 515.318 53.5075 511.125 53.542 506.994L51.7087 471.125L57.9073 470.799Z" fill="url(#paint8_linear)"/>
<path opacity="0.24" d="M116.752 686.948L125.901 692.722C126.016 692.906 126.566 693.742 127.591 695.071L138.614 709.823C144.2 717.374 151.137 726.769 160.498 736.382L179.541 756.382L202.434 777.201L228.987 797.149C232.379 799.893 235.994 802.07 239.832 804.379L257.466 815.086C291.49 834.857 333.712 851.167 373.086 859.72C383.817 861.702 393.607 863.152 402.258 864.429C406.755 865.088 410.794 865.69 414.312 866.268C416.683 866.526 419.256 866.623 421.37 866.709C422.779 866.767 424.034 866.824 425.093 866.904L428.943 867.093L427.7 891.865L423.506 891.653C422.366 891.573 421.421 891.533 420.361 891.493C417.755 891.389 414.552 891.252 410.874 890.828C406.881 890.181 402.974 889.608 398.632 888.972C390.216 887.729 379.743 886.182 368.182 884.033C326.023 874.884 281.189 857.56 244.799 836.409L227.028 825.633C222.628 822.986 218.085 820.254 213.714 816.69L186.187 795.952L151.647 763.515L142.452 753.386C132.192 742.879 124.372 732.292 118.677 724.581L107.867 710.121C106.108 707.852 105.123 706.289 104.911 705.945L115.36 699.276L116.752 686.948Z" fill="url(#paint9_linear)"/>
<path d="M456.453 164.756C480.554 164.756 500.863 167.449 515.609 170.296C542.741 176.317 567.204 184.372 584.557 193.006C587.421 194.398 590.097 195.681 592.526 196.838C596.708 198.843 600.191 200.493 602.798 201.897L609.008 205.672L606.871 209.207L600.752 205.483C598.266 204.171 594.869 202.539 590.738 200.579C588.309 199.405 585.634 198.122 582.729 196.712C565.657 188.222 541.544 180.287 514.767 174.352C492.241 169.998 456.401 166.005 413.927 171.751C375.818 176.861 338.065 189.82 304.717 209.23C271.415 228.422 241.287 254.637 217.586 285.052C195.725 313.129 179.128 343.807 169.618 373.77C167.378 379.212 166.015 384.614 164.697 389.845C164.33 391.323 163.958 392.772 163.58 394.216C163.03 396.536 162.417 398.857 161.798 401.137C160.704 405.204 159.673 409.043 159.077 412.795C158.487 417.132 157.828 421.285 157.186 425.232C156.069 432.239 155.084 438.283 154.746 443.731L153.359 471.064L149.229 470.857L150.604 443.496C150.97 437.824 152.002 431.391 153.102 424.579C153.737 420.666 154.391 416.536 154.992 412.193C155.628 408.189 156.671 404.242 157.799 400.071C158.401 397.825 159.008 395.557 159.552 393.214C159.948 391.741 160.314 390.298 160.675 388.837C162.027 383.469 163.425 377.917 165.734 372.36C175.335 342.095 192.138 310.969 214.326 282.514C238.336 251.687 268.871 225.105 302.632 205.649C336.432 185.976 374.736 172.84 413.36 167.661C428.685 165.576 443.139 164.756 456.453 164.756Z" fill="url(#paint10_linear)"/>
<path d="M177.218 329.261L192.113 336.45L182.5 356.696L174.703 377.933C173.156 381.651 172.228 385.312 171.265 389.196L166.556 407.523C165.685 410.468 165.325 412.897 165.021 415.045L164.15 420.78L147.794 418.316L148.653 412.656C149.02 410.227 149.501 406.893 150.624 403.101L155.236 385.169C156.256 381.073 157.424 376.427 159.309 371.912L168.739 346.854L177.218 329.261Z" fill="url(#paint11_linear)"/>
<path d="M275.257 215.826L285.162 229.066L273.682 237.648C268.881 240.861 263.736 245.605 258.294 250.635C255.698 253.018 253.057 255.459 250.348 257.842C247.214 260.471 244.43 263.554 241.754 266.538L229.403 280.127C227.489 282.081 226.154 283.897 224.992 285.507C224.367 286.372 223.771 287.157 223.233 287.833L221.05 290.766L207.799 280.878L210.159 277.704C210.744 276.999 211.145 276.409 211.615 275.768C212.978 273.906 214.828 271.351 217.378 268.761L229.449 255.459C232.382 252.21 235.687 248.527 239.589 245.284C242.029 243.136 244.579 240.776 247.065 238.478C253.017 232.99 258.637 227.817 264.137 224.139L275.257 215.826Z" fill="url(#paint12_linear)"/>
<path d="M414.921 161.141L417.43 177.491L403.251 179.651C397.735 180.172 391.301 181.908 384.489 183.73C380.794 184.721 377.013 185.735 373.198 186.634C369.004 187.522 364.908 189.052 360.938 190.524L344.353 196.597C341.23 197.623 338.79 198.808 336.842 199.771L332.041 202.085L324.823 187.202L329.578 184.904C331.858 183.793 334.98 182.258 338.945 180.969L355.18 175.022C359.488 173.418 364.375 171.608 369.583 170.502C373.06 169.677 376.675 168.709 380.204 167.758C387.726 165.747 394.819 163.839 401.252 163.249L414.921 161.141Z" fill="url(#paint13_linear)"/>
<path opacity="0.14" d="M153.358 470.842L154.744 498.197C155.082 503.623 156.062 509.667 157.185 516.673C157.821 520.615 158.485 524.774 159.087 529.145C159.671 532.857 160.696 536.707 161.796 540.769C162.409 543.043 163.028 545.363 163.59 547.741C163.956 549.127 164.329 550.582 164.695 552.055C166.013 557.285 167.382 562.682 169.553 567.964C179.126 598.092 195.723 628.771 217.59 656.854C241.291 687.268 271.419 713.49 304.71 732.67C338.063 752.079 375.817 765.044 413.925 770.148C456.411 775.883 492.239 771.896 514.829 767.536C541.537 761.618 565.65 753.678 582.716 745.199C585.638 743.773 588.313 742.495 590.737 741.332C594.867 739.361 598.264 737.734 600.854 736.354L606.875 732.693L609.012 736.228L602.905 739.94C600.195 741.401 596.718 743.056 592.53 745.062C590.101 746.224 587.425 747.502 584.549 748.9C567.208 757.528 542.746 765.582 515.671 771.581C492.732 776.015 456.411 780.077 413.37 774.239C374.745 769.066 336.442 755.924 302.641 736.25C268.881 716.795 238.346 690.219 214.336 659.397C192.148 630.93 175.339 599.811 165.686 569.385C163.435 563.994 162.037 558.437 160.685 553.069C160.324 551.608 159.957 550.17 159.591 548.749C159.018 546.36 158.416 544.08 157.809 541.846C156.68 537.669 155.638 533.722 155.002 529.752C154.4 525.375 153.747 521.245 153.111 517.332C152.017 510.52 150.98 504.081 150.614 498.438L149.239 471.048L153.358 470.842Z" fill="url(#paint14_linear)"/>
<path d="M332.002 739.813L336.848 742.151C338.905 743.147 341.237 744.287 344.078 745.221L360.927 751.386C364.897 752.858 369.005 754.382 373.032 755.241C377.002 756.169 380.789 757.189 384.478 758.18C391.29 760.008 397.735 761.726 402.759 762.202L417.42 764.419L414.922 780.769L400.743 778.598C394.802 778.065 387.709 776.157 380.187 774.147C376.676 773.201 373.049 772.227 369.423 771.379C364.364 770.302 359.489 768.486 355.158 766.888L338.653 760.844C335.004 759.658 331.87 758.129 329.59 757.006L324.835 754.72L332.002 739.813Z" fill="url(#paint15_linear)"/>
<g opacity="0.25">
<path d="M221.068 651.148L223.417 654.282C223.772 654.746 224.356 655.525 224.969 656.384C226.144 657.994 227.478 659.816 229.174 661.546L241.761 675.387C244.436 678.366 247.209 681.443 250.188 683.935C253.041 686.438 255.682 688.867 258.243 691.25C263.702 696.286 268.864 701.035 273.292 703.98L285.151 712.831L275.246 726.076L263.765 717.489C258.604 714.08 252.989 708.89 247.025 703.396C244.551 701.11 242.013 698.755 239.417 696.475C235.688 693.37 232.388 689.686 229.461 686.45L217.155 672.901C214.829 670.529 212.961 667.985 211.604 666.118C211.134 665.476 210.721 664.897 210.326 664.399L207.788 661.008L221.068 651.148Z" fill="url(#paint16_linear)"/>
</g>
<path opacity="0.25" d="M164.149 521.115L165.02 526.861C165.324 529.004 165.679 531.433 166.475 534.068L170.21 548.603C170.56 549.88 170.915 551.301 171.276 552.739C172.25 556.606 173.155 560.255 174.553 563.618L183.169 586.986L192.101 605.462L177.217 612.629L164.974 585.508L159.165 569.633C157.418 565.463 156.243 560.834 155.235 556.743L150.537 538.48C149.495 535.002 149.014 531.674 148.658 529.245L147.788 523.579L164.149 521.115Z" fill="url(#paint17_linear)"/>
<path d="M90.2444 455.946L93.991 456.141L93.2406 471.053L89.4824 470.858L90.2444 455.946Z" fill="url(#paint18_linear)"/>
<path d="M96.5391 399.444L100.257 400.069C100.131 400.785 100.022 401.587 99.9077 402.452L97.0662 421.105L93.3539 420.532L96.184 401.936C96.2928 401.077 96.4074 400.218 96.5391 399.444ZM91.3029 434.786L95.061 434.964L94.7002 442.062L90.9534 441.878L91.3029 434.786Z" fill="url(#paint19_linear)"/>
<path d="M434.005 105.724L434.217 109.476L430.436 109.676C429.319 109.78 427.921 109.82 426.363 109.877C423.453 109.974 419.838 110.1 415.742 110.713C414.957 110.851 414.097 111.006 413.215 111.155L412.591 107.436C413.461 107.299 414.304 107.156 415.129 107.001C419.494 106.348 423.229 106.216 426.231 106.119C427.721 106.062 429.038 106.016 430.178 105.924L434.005 105.724ZM398.584 109.499L399.145 113.217C396.882 113.549 394.556 113.899 392.138 114.294L391.543 110.576C393.972 110.192 396.321 109.831 398.584 109.499ZM377.478 113.223L378.286 116.901C373.193 118.012 368.449 119.232 363.752 120.642C359.558 121.713 355.313 122.887 350.982 124.182L349.905 120.584C354.27 119.272 358.567 118.075 362.726 117.009C367.453 115.6 372.299 114.351 377.478 113.223ZM339.696 123.833L340.893 127.402C334.305 129.613 327.637 132.076 321.02 134.74L319.622 131.251C326.279 128.565 333.033 126.073 339.696 123.833ZM306.486 136.826L308.01 140.263C305.873 141.214 303.724 142.199 301.582 143.208L299.983 139.799C302.143 138.779 304.314 137.788 306.486 136.826ZM287.173 146.095L288.921 149.435C280.471 153.789 272.192 158.452 264.292 163.316L262.322 160.108C270.285 155.204 278.655 150.489 287.173 146.095ZM253.287 165.865L255.355 169.011C249.449 172.883 243.617 176.985 238.025 181.179L235.757 178.183C241.417 173.92 247.306 169.778 253.287 165.865ZM224.522 187.017L226.928 189.91C225.319 191.245 223.726 192.591 222.128 193.949L221.612 194.447L219.04 191.703L219.624 191.147C221.303 189.715 222.901 188.357 224.522 187.017ZM208.556 201.213L211.054 204.014C203.543 210.729 196.852 216.853 191.065 223.756L188.172 221.344C194.13 214.24 200.925 208.025 208.556 201.213ZM181.086 229.181L183.87 231.708L176.273 240.072L170.378 247.938L167.382 245.675L174.921 235.959L181.086 229.181ZM158.783 256.961L161.768 259.247C160.336 261.108 158.961 262.999 157.626 264.912L154.532 262.753C155.907 260.805 157.322 258.868 158.783 256.961ZM146.77 274.778L149.983 276.737C148.694 278.845 147.446 280.936 146.179 283.016C144.827 285.284 143.47 287.536 142.106 289.747L137.26 297.716C136.71 298.753 136.16 299.882 135.615 301.01L132.224 299.383C132.785 298.203 133.375 297.029 134.006 295.86L138.898 287.788C140.25 285.577 141.608 283.348 142.971 281.085C144.203 278.983 145.469 276.886 146.77 274.778ZM127.601 308.974L131.004 310.6L125.899 321.176C124.49 323.828 123.184 326.601 121.883 329.729L118.406 328.286C119.758 325.043 121.121 322.167 122.554 319.475L127.601 308.974ZM113.422 341.685L116.956 342.957C116.229 345.008 115.501 347.002 114.739 348.915L114.47 349.632L110.958 348.314L111.216 347.598C111.989 345.667 112.694 343.708 113.422 341.685ZM106.152 361.76L109.732 362.923C108.77 365.896 108.077 368.417 107.618 370.628L102.571 390.284L98.9218 389.344L103.946 369.78C104.416 367.517 105.143 364.87 106.152 361.76Z" fill="url(#paint20_linear)"/>
<path d="M94.3264 492.557L94.5269 496.315C94.6243 497.432 94.6816 498.824 94.7274 500.4C94.842 503.299 94.9508 506.919 95.5638 511.01C95.707 511.795 95.856 512.654 96.0107 513.548L92.2984 514.161C92.1552 513.29 92.0176 512.454 91.863 511.629C91.2042 507.257 91.0781 503.522 90.9692 500.526C90.9234 499.037 90.8776 497.713 90.7802 496.579L90.5739 492.729L94.3264 492.557ZM98.0788 527.629C98.4168 529.881 98.7605 532.213 99.1558 534.624L95.4435 535.22C95.054 532.791 94.693 530.442 94.3665 528.179L98.0788 527.629ZM101.757 548.477C102.862 553.564 104.083 558.319 105.492 563.017C106.563 567.216 107.743 571.444 109.038 575.769L105.435 576.852C104.117 572.475 102.925 568.19 101.866 564.019C100.456 559.31 99.2017 554.464 98.0731 549.279L101.757 548.477ZM112.264 585.864C114.469 592.446 116.938 599.138 119.591 605.743L116.102 607.152C113.427 600.478 110.923 593.724 108.695 587.061L112.264 585.864ZM125.119 618.759C126.07 620.896 127.056 623.039 128.047 625.181L124.661 626.774C123.63 624.608 122.644 622.449 121.676 620.277L125.119 618.759ZM134.297 637.854C138.639 646.292 143.314 654.576 148.172 662.471L144.97 664.436C140.06 656.461 135.334 648.103 130.94 639.572L134.297 637.854ZM153.855 671.408C157.74 677.314 161.836 683.14 166.041 688.738L163.033 691.001C158.782 685.346 154.629 679.445 150.727 673.476L153.855 671.408ZM174.766 699.835C176.095 701.444 177.453 703.043 178.816 704.63L179.309 705.151L176.559 707.723L176.009 707.133C174.565 705.466 173.225 703.851 171.867 702.229L174.766 699.835ZM188.865 715.704C195.579 723.214 201.697 729.9 208.624 735.698L206.195 738.573C199.091 732.615 192.869 725.827 186.052 718.207L188.865 715.704ZM216.558 742.893L224.928 750.495L232.794 756.39L230.531 759.392L220.832 751.842L214.038 745.677L216.558 742.893ZM244.109 764.989C245.976 766.422 247.867 767.797 249.769 769.131L247.62 772.219C245.661 770.862 243.725 769.452 241.811 767.974L244.109 764.989ZM261.599 776.791C263.701 778.074 265.792 779.335 267.878 780.583C270.146 781.947 272.386 783.299 274.603 784.657L282.572 789.509C283.604 790.053 284.732 790.609 285.872 791.153L284.239 794.539C283.065 793.972 281.891 793.388 280.716 792.769L272.638 787.865C270.433 786.507 268.199 785.161 265.947 783.803C263.856 782.554 261.754 781.288 259.645 779.993L261.599 776.791ZM295.468 795.759L306.032 800.852C308.696 802.279 311.48 803.585 314.591 804.874L313.159 808.346C309.916 807.005 307.029 805.653 304.319 804.198L293.835 799.151L295.468 795.759ZM327.814 809.789C329.859 810.528 331.864 811.262 333.777 812.006L334.493 812.276L333.164 815.793L332.448 815.524C330.523 814.768 328.564 814.052 326.542 813.33L327.814 809.789ZM347.79 817.036C350.758 817.999 353.273 818.692 355.49 819.15L375.14 824.203L374.2 827.841L354.642 822.811C352.379 822.341 349.732 821.625 346.633 820.617L347.79 817.036Z" fill="url(#paint21_linear)"/>
<path d="M93.2425 470.856L93.993 485.763L90.2463 485.958L89.4843 471.051L93.2425 470.856Z" fill="url(#paint22_linear)"/>
<path d="M444.584 30.5926L444.796 34.7231L428.291 35.5481L428.079 31.429L444.584 30.5926ZM411.551 32.2884L411.798 36.4189L410.744 36.4704L395.625 38.7906L395 34.7059L411.551 32.2884ZM378.656 37.198L379.269 41.2827L372.119 42.3654C369.513 42.7149 366.78 43.2649 363.188 44.1644L362.191 40.1598C365.926 39.2146 368.802 38.6302 371.535 38.275L378.656 37.198ZM346.185 44.3248L347.216 48.3235L331.203 52.4769L330.184 48.4725L346.185 44.3248ZM314.286 53.6686L315.695 57.547L300.279 63.1786L298.824 59.3172L314.286 53.6686ZM283.144 65.2123L284.834 68.9762C282.84 69.8756 280.852 70.8438 278.87 71.8292C277.317 72.5797 275.771 73.3473 274.195 74.0749L269.979 76.1144L268.186 72.3849L272.425 70.3397C273.989 69.6121 275.536 68.8616 277.048 68.1169C279.082 67.1143 281.11 66.1232 283.144 65.2123ZM253.29 79.5689L255.084 83.2928L247.43 86.9822C245.236 88.2253 242.932 89.5602 240.618 90.9237L238.527 87.3602C240.853 85.9967 243.185 84.6391 245.522 83.3157L253.29 79.5689ZM224.348 95.9994L226.554 99.494C221.942 102.416 217.359 105.418 212.781 108.517L210.467 105.108C215.073 101.98 219.702 98.9383 224.348 95.9994ZM196.866 114.658L199.318 117.998C194.884 121.224 190.502 124.524 186.171 127.909L183.621 124.655C188.004 121.241 192.421 117.907 196.866 114.658ZM170.714 135.099L173.355 138.273C169.161 141.785 165.008 145.377 160.912 149.049L158.15 145.978C162.292 142.266 166.475 138.645 170.714 135.099ZM145.919 157.327L148.864 160.249L146.939 162.117C143.759 165.371 140.609 168.711 137.498 172.091L134.456 169.306C137.589 165.881 140.78 162.512 144.023 159.184L145.919 157.327ZM123.433 181.721L126.59 184.414C123.021 188.59 119.52 192.835 116.095 197.097L112.864 194.531C116.301 190.211 119.83 185.938 123.433 181.721ZM102.718 207.667L106.04 210.142C102.74 214.559 99.5495 219.022 96.4158 223.508L93.0243 221.147C96.1752 216.616 99.4063 212.124 102.718 207.667ZM83.7663 234.925L87.2439 237.177C84.2362 241.817 81.3374 246.475 78.5302 251.138L74.984 249.013C77.8141 244.298 80.7529 239.6 83.7663 234.925ZM66.7802 263.564L70.4926 265.357L63.3084 280.247L59.5961 278.459L66.7802 263.564ZM52.4121 293.337L56.1244 295.153C54.9729 297.519 53.8443 299.874 52.8532 302.28L49.9486 310.238L46.0645 308.817L48.9976 300.785C50.0517 298.23 51.2148 295.789 52.4121 293.337ZM40.3699 324.342L44.2542 325.763L38.6914 341.105L34.6869 340.102L35.5691 337.467L40.3699 324.342ZM30.5506 356.086L34.5551 357.123L32.527 364.937C31.8911 367.687 31.135 370.448 30.4131 373.147L26.4201 372.075C27.1362 369.411 27.8752 366.707 28.5111 363.946L30.5506 356.086ZM22.8853 388.448L26.9585 389.079L24.4608 405.418L20.3761 404.799L22.8853 388.448ZM17.8955 421.138L21.9687 421.751L21.3099 426.105L20.7084 438.026L16.5778 437.809L17.2194 425.692L17.8955 421.138ZM15.7242 454.325L19.8547 454.537L19.0183 471.054L14.8992 470.847L15.7242 454.325Z" fill="url(#paint23_linear)"/>
<path d="M19.5828 481.964L20.4135 498.48L16.2944 498.692L15.458 482.181L19.5828 481.964ZM21.2671 514.974L21.3244 516.016L23.6503 531.141L19.5656 531.765L17.1366 515.214L21.2671 514.974ZM26.1481 547.479L27.2309 554.635C27.5803 557.241 28.1246 559.98 29.024 563.56L25.0309 564.574C24.08 560.828 23.5071 557.946 23.1405 555.213L22.0577 548.11L26.1481 547.479ZM33.2004 579.538L37.3538 595.551L33.3379 596.582L29.1959 580.57L33.2004 579.538ZM42.4067 611.059L48.0439 626.481L44.1827 627.953L46.142 627.3L44.1827 627.942L38.5226 612.48L42.4067 611.059ZM53.8416 641.926C54.7468 643.926 55.7207 645.908 56.6832 647.896C57.4337 649.448 58.207 650.995 58.9346 652.576L60.9684 656.793L57.2446 658.586L55.2108 654.346C54.4833 652.771 53.7213 651.241 52.9708 649.717C51.9854 647.689 50.9886 645.667 50.072 643.628L53.8416 641.926ZM68.1524 671.682L71.8476 679.33C73.0908 681.524 74.4199 683.833 75.7719 686.148L72.2142 688.233C70.8393 685.907 69.5044 683.575 68.1753 681.244L64.4286 673.469L68.1524 671.682ZM84.3538 700.212C87.2641 704.824 90.2831 709.413 93.3825 713.979L89.9681 716.304C86.8229 711.693 83.8038 707.064 80.8591 702.423L84.3538 700.212ZM102.875 727.453C106.084 731.87 109.389 736.253 112.775 740.601L109.521 743.144C106.106 738.767 102.761 734.339 99.5296 729.893L102.875 727.453ZM123.138 753.405C126.639 757.604 130.231 761.758 133.903 765.848L130.838 768.609C127.126 764.479 123.511 760.291 119.976 756.063L123.138 753.405ZM145.103 777.902L146.971 779.827C150.236 783 153.57 786.151 156.95 789.262L154.155 792.304C150.74 789.176 147.383 785.991 144.049 782.743L142.181 780.835L145.103 777.902ZM169.268 800.187C173.45 803.762 177.683 807.251 181.957 810.671L179.385 813.896C175.077 810.459 170.803 806.936 166.575 803.327L169.268 800.187ZM195.008 820.719C199.419 824.008 203.882 827.222 208.356 830.344L206.007 833.736C201.487 830.59 196.99 827.359 192.533 824.048L195.008 820.719ZM222.025 839.516C226.683 842.524 231.323 845.422 235.992 848.235L233.867 851.782C229.157 848.946 224.454 846.018 219.791 842.988L222.025 839.516ZM250.211 856.267L265.106 863.446L263.313 867.169L248.418 859.985L250.211 856.267ZM280.024 870.641C282.385 871.793 284.745 872.921 287.14 873.912L295.097 876.817L293.688 880.701L285.667 877.756C283.095 876.719 280.655 875.545 278.203 874.348L280.024 870.641ZM310.622 882.506L325.964 888.063L324.956 892.073L322.327 891.185L309.202 886.39L310.622 882.506ZM341.988 892.21L349.797 894.233C352.547 894.874 355.314 895.619 358 896.352L356.935 900.34C354.271 899.624 351.573 898.885 348.811 898.254L340.957 896.221L341.988 892.21ZM373.933 899.801L390.283 902.299L389.658 906.378L373.32 903.886L373.933 899.801ZM406.605 904.791L410.97 905.45L422.886 906.069L422.674 910.194L410.546 909.558L406.003 908.876L406.605 904.791ZM439.391 906.911L455.919 907.747L455.707 911.872L439.191 911.036L439.391 906.911Z" fill="url(#paint24_linear)"/>
<path d="M101.064 163.44C101.895 163.44 102.639 163.686 103.212 164.185C103.797 164.769 104.117 165.508 104.22 166.339C104.22 167.158 103.951 167.989 103.384 168.642L101.07 171.128C100.657 171.627 100.25 172.039 99.8264 172.538C99.0988 173.277 98.3483 174.193 97.4317 175.184C96.4349 176.422 94.3781 176.588 93.0548 175.517C91.8116 174.44 91.6455 172.538 92.7168 171.22C93.7136 170.057 94.6188 169.066 95.3693 168.235C95.7818 167.823 96.1083 167.41 96.4349 166.998L98.841 164.437C99.4082 163.772 100.25 163.44 101.064 163.44ZM57.7418 223.049C58.3261 223.049 58.9048 223.13 59.4089 223.456C60.0563 223.869 60.549 224.533 60.8182 225.358C60.9729 226.189 60.887 227.019 60.3943 227.758C59.5637 229.162 57.5871 229.66 56.1778 228.75C54.6883 227.919 54.2873 226.017 55.1008 224.539C55.1008 224.453 55.1925 224.453 55.1925 224.453C55.7596 223.542 56.7564 223.049 57.7418 223.049ZM21.8674 293.486C22.2054 293.486 22.6065 293.566 22.9445 293.647C23.6835 293.979 24.3538 294.557 24.6803 295.302C25.0183 296.041 25.0928 296.872 24.8465 297.617C24.5199 298.442 24.2736 299.272 23.9298 300.252L13.9386 327.625C12.2772 331.675 11.206 335.886 10.043 340.354L9.96275 340.858C8.88571 345.155 7.72272 349.366 6.66287 353.496L6.49678 354.333C5.66036 357.552 4.8411 360.778 3.99896 363.923C2.6011 369.383 1.19177 374.579 0.206405 379.546C-0.612833 385.172 -1.44921 390.631 -2.26844 395.759L-3.51735 404.186C-4.58293 410.883 -5.48808 417.087 -6.33023 422.541C-6.65105 426.173 -6.81718 429.645 -6.89738 432.63C-6.97759 434.366 -7.06352 436.015 -7.14373 437.591C-7.64787 446.104 -7.89428 450.979 -7.89428 450.979C-7.97449 452.635 -9.29208 453.873 -10.9477 453.873L-11.1139 453.873C-12.8498 453.792 -14.0986 452.383 -14.0013 450.647C-14.0013 450.647 -13.7549 445.525 -13.3539 437.259C-13.2622 435.769 -13.1877 434.205 -13.1075 432.55C-13.0216 429.404 -12.8498 425.767 -12.5232 421.796L-12.4315 421.63C-11.8472 417.586 -11.1884 413.283 -10.4494 408.66L-5.89481 378.48C-4.81777 373.021 -3.34552 367.641 -1.856 361.941C-1.10552 358.962 -0.280517 355.903 0.458513 352.763C1.11733 350.363 1.71314 347.968 2.36051 345.568L4.10779 338.785C5.17337 334.408 6.33061 329.853 8.15813 325.396C10.5528 318.854 12.959 312.248 15.3537 305.717L18.0749 298.195C18.4129 297.365 18.6593 296.454 18.9801 295.549C19.3811 294.317 20.5498 293.486 21.8674 293.486Z" fill="url(#paint25_linear)"/>
<path d="M455.739 0.574636C497.652 0.574639 539.312 6.12018 579.65 17.114C580.394 17.2744 581.059 17.7728 581.471 18.5176C581.895 19.2623 582.044 20.0873 581.809 20.9123C581.385 22.482 579.649 23.4788 578 23.0606C538.315 12.3132 497.136 6.77331 455.905 6.7733L455.235 6.7733C445.479 6.7733 435.562 7.10555 425.639 7.7701L425.055 7.85604C424.058 7.93624 423.073 7.93627 422.076 8.0222C420.266 8.1024 418.851 6.86492 418.765 5.12331C418.685 4.29262 418.931 3.55937 419.527 2.89482C420.019 2.30473 420.839 1.89797 421.675 1.81777C422.741 1.73757 423.904 1.73757 425.055 1.65737L425.221 1.65737C435.218 0.906879 445.479 0.574635 455.739 0.574636ZM407.45 3.05522C409.106 3.05522 410.435 4.29839 410.595 5.86809C410.761 7.51802 409.518 9.09346 407.777 9.2596L407.696 9.2596C406.132 9.42 404.563 8.18257 404.397 6.53264C404.231 4.877 405.474 3.3875 407.038 3.14116C407.204 3.05522 407.37 3.05522 407.45 3.05522ZM343.705 14.2151C345.114 14.2151 346.369 15.2062 346.689 16.5353C346.936 17.3603 346.77 18.1852 346.363 18.93C345.939 19.5888 345.28 20.0872 344.461 20.3335C342.794 20.7403 341.058 19.669 340.645 18.0248C340.244 16.3692 341.316 14.7192 342.96 14.301L343.052 14.301C343.298 14.2151 343.458 14.2151 343.705 14.2151ZM268.736 39.514C269.968 39.514 271.051 40.2587 271.532 41.4216C271.87 42.1606 271.87 42.9856 271.624 43.7304C271.297 44.4751 270.707 45.134 269.968 45.472C267.653 46.4573 265.425 47.4485 263.185 48.4453C220.619 66.881 189.282 90.5298 166.389 107.808L162.081 111.034L162.001 111.034C154.897 117.135 148.853 122.68 143.978 127.149C142.242 128.799 140.598 130.288 139.097 131.612C139.097 131.612 139.097 131.612 139.017 131.698C137.854 132.689 135.791 132.603 134.72 131.365C133.557 130.122 133.712 128.14 134.966 126.977C136.456 125.659 138.02 124.17 139.75 122.6C144.711 118.051 150.83 112.426 158.191 106.141L158.271 106.061C159.847 104.904 161.325 103.746 162.9 102.589C185.965 85.2305 217.554 61.4213 260.618 42.8138C262.933 41.7368 265.173 40.7514 267.476 39.7603C267.894 39.5999 268.312 39.514 268.736 39.514ZM653.151 44.1429C653.564 44.1429 654.057 44.3091 654.469 44.481C655.208 44.8075 655.798 45.4778 656.044 46.2168C656.291 47.0475 656.291 47.8724 655.953 48.6115C655.202 50.1067 653.312 50.7655 651.822 50.1067C651.083 49.7745 650.505 49.1156 650.247 48.3709C649.92 47.5402 650 46.7152 650.338 45.9704C650.837 44.8934 651.914 44.1429 653.151 44.1429ZM709.793 75.5602C710.452 75.5602 711.025 75.7207 711.517 76.0644C712.927 76.9696 713.339 78.8715 712.434 80.3553C711.517 81.6787 709.535 82.1714 708.137 81.272C706.728 80.3553 706.316 78.3674 707.221 76.9695C707.788 76.0643 708.785 75.5602 709.793 75.5602ZM721.778 83.5864C722.437 83.5864 723.01 83.7411 723.6 84.0848C744.59 98.5503 764.263 114.752 782.201 132.03C802.131 151.044 820.567 172.287 837.026 195.111C837.507 195.776 837.765 196.595 837.599 197.425C837.433 198.256 837.026 198.989 836.356 199.413C835.038 200.399 832.976 200.072 831.979 198.755C815.761 176.257 797.583 155.347 777.904 136.493C760.305 119.472 740.786 103.506 720.031 89.2064C719.383 88.7138 718.879 88.0492 718.787 87.2243C718.621 86.3993 718.787 85.5686 719.292 84.9098C719.876 84.0848 720.781 83.5864 721.778 83.5864ZM126.361 135.914C127.198 135.914 128.097 136.252 128.676 136.905C129.839 138.148 129.673 140.136 128.43 141.288C127.278 142.365 125.204 142.29 124.041 141.047C122.976 139.804 123.056 137.908 124.207 136.751C124.207 136.751 124.207 136.659 124.288 136.659C124.872 136.155 125.622 135.914 126.361 135.914ZM875.295 261.664C876.447 261.664 877.535 262.323 878.028 263.4C878.773 264.958 878.108 266.791 876.624 267.53C875.129 268.281 873.227 267.616 872.488 266.132C871.738 264.563 872.408 262.741 873.886 261.996C874.298 261.738 874.803 261.664 875.295 261.664ZM899.935 321.514C901.264 321.514 902.422 322.344 902.823 323.582C903.161 324.401 903.08 325.226 902.742 325.976C902.416 326.721 901.746 327.294 901.007 327.54C899.443 328.119 897.604 327.214 897.036 325.644C897.036 325.644 897.036 325.558 896.956 325.558C896.79 324.819 896.79 323.988 897.122 323.324C897.535 322.579 898.102 322.006 898.933 321.674C899.259 321.599 899.609 321.514 899.935 321.514ZM904.22 335.234C905.653 335.234 906.873 336.225 907.205 337.623C908.437 342.344 909.6 346.887 910.763 351.269L913.238 360.779C913.576 362.023 913.822 363.26 914.154 364.492C915.976 371.533 917.701 378.138 918.451 384.503L923.498 417.656C924.237 422.039 924.484 425.104 924.484 426.839L924.564 428.163C924.564 429.16 924.667 429.647 924.667 429.899C924.667 430.735 924.398 431.468 923.831 432.133C923.338 432.706 922.513 433.124 921.682 433.124C919.946 433.21 918.537 431.881 918.457 430.231C918.457 430.231 918.377 429.16 918.279 427.097C918.279 425.35 918.136 422.543 917.374 418.733C916.389 412.454 915.065 403.781 913.427 392.861L912.264 385.339C911.68 379.387 909.949 372.696 908.047 365.574L905.991 357.56C904.501 351.774 902.926 345.661 901.282 339.21C901.282 339.21 901.282 339.21 901.282 339.13C900.858 337.48 901.854 335.819 903.499 335.406C903.728 335.32 903.974 335.234 904.22 335.234Z" fill="url(#paint26_linear)"/>
<path d="M-9.9707 508.764C-8.23486 508.764 -6.90569 510.001 -6.82549 511.651C-6.82549 511.737 -6.73388 512.809 -6.65942 514.877C-6.65942 516.446 -6.49322 519.173 -5.75421 523.229C-4.59124 530.918 -2.8554 542.163 -0.621152 556.543C-0.0482152 562.409 1.69916 568.946 3.42352 575.89C3.76154 577.041 4.09381 578.284 4.42035 579.527C6.32233 586.797 8.30457 594.566 10.3727 602.758C10.6305 603.583 10.4529 604.408 10.0404 605.067C9.62793 605.812 8.97479 606.31 8.14984 606.562C6.5744 606.975 4.83856 605.898 4.34582 604.328L3.92767 602.592C2.02563 594.978 0.123658 587.794 -1.61792 581.103C-1.94446 579.78 -2.27099 578.45 -2.60327 577.133C-4.41937 570.184 -6.16101 563.658 -6.81982 557.374L-11.8555 524.221C-12.606 520.004 -12.8523 516.939 -12.8523 515.043L-12.944 513.634C-12.944 512.723 -13.0242 512.224 -13.0242 512.064C-13.0242 512.064 -13.0242 512.064 -13.0242 511.984C-13.1101 510.328 -11.7924 508.844 -10.0336 508.758L-9.9707 508.758L-9.9707 508.764ZM11.696 614.17C13.0137 614.17 14.1824 615.001 14.5948 616.232C14.9157 616.972 14.8527 617.888 14.5032 618.633C14.0907 619.378 13.5178 619.956 12.6929 620.203C11.2034 620.781 9.30133 619.865 8.80859 618.301C8.2243 616.731 9.05499 614.915 10.6304 614.33C10.9456 614.256 11.3695 614.17 11.696 614.17ZM36.422 674.026C37.562 674.026 38.6506 674.69 39.1432 675.756C39.5557 676.506 39.5557 677.411 39.3093 678.156C39.063 678.987 38.4786 679.566 37.7454 679.892C36.2559 680.723 34.3538 679.978 33.6148 678.488C33.1908 677.744 33.1909 676.919 33.4372 676.088C33.6836 675.343 34.2679 674.685 35.0126 674.352C35.4251 674.186 35.9178 674.026 36.422 674.026ZM77.0856 741.896C78.0824 741.896 78.9877 742.389 79.5835 743.214C95.865 765.705 114.049 786.622 133.716 805.384C151.252 822.416 170.765 838.291 191.601 852.676C192.999 853.667 193.325 855.563 192.431 856.972C191.423 858.376 189.452 858.783 188.043 857.797C166.961 843.246 147.282 827.125 129.425 809.841C109.505 790.827 91.0814 769.584 74.6108 746.766C73.6254 745.442 73.8718 743.454 75.2811 742.463C75.854 742.062 76.4211 741.896 77.0856 741.896ZM785.264 799.855C786.169 799.855 787 800.188 787.578 800.846C788.065 801.425 788.409 802.25 788.409 803.081C788.317 803.906 787.997 804.65 787.326 805.229C787.326 805.229 787.326 805.229 787.258 805.315C786.095 806.306 784.027 806.22 782.961 804.983C781.798 803.74 781.953 801.757 783.196 800.6C783.774 800.096 784.513 799.855 785.264 799.855ZM774.602 809.526C775.416 809.526 776.327 809.858 776.917 810.523C778.068 811.84 777.994 813.748 776.671 814.899C775.095 816.303 773.44 817.878 771.538 819.614C766.668 824.077 760.63 829.617 753.446 835.73L753.343 835.81C751.864 836.967 750.386 838.044 748.8 839.201C725.752 856.646 694.152 880.455 651.007 899.137C648.779 900.128 646.464 901.125 644.15 902.122C642.66 902.781 640.747 902.03 640.099 900.547C639.44 898.977 640.099 897.161 641.663 896.496C643.978 895.499 646.218 894.514 648.446 893.437C691.024 875.001 722.349 851.438 745.179 834.154L749.476 830.929C756.66 824.816 762.79 819.19 767.659 814.728C769.395 813.158 771.051 811.674 772.54 810.339C772.54 810.259 772.54 810.259 772.54 810.259C773.113 809.772 773.863 809.526 774.602 809.526ZM201.844 860.204C202.417 860.204 203.007 860.364 203.5 860.696C204.909 861.601 205.31 863.503 204.416 864.913C203.5 866.316 201.506 866.723 200.108 865.898C198.699 864.987 198.298 863.011 199.192 861.601C199.776 860.702 200.773 860.204 201.844 860.204ZM258.474 891.535C258.967 891.535 259.379 891.621 259.803 891.781C260.542 892.194 261.115 892.772 261.447 893.597C261.694 894.348 261.694 895.167 261.281 895.918C260.623 897.401 258.721 898.152 257.139 897.401C257.139 897.401 257.139 897.401 257.059 897.401C256.4 897.069 255.827 896.41 255.581 895.665C255.323 894.926 255.323 894.096 255.661 893.351C256.154 892.194 257.323 891.535 258.474 891.535ZM332.801 918.736C333.047 918.736 333.374 918.816 333.62 918.816C382.975 932.21 434.323 937.584 485.998 934.106C487.149 934.026 488.381 933.94 489.544 933.86C491.28 933.7 492.775 935.023 492.855 936.753C493.01 938.409 491.692 939.979 490.036 940.059C489.378 940.059 488.805 940.145 488.215 940.145C487.556 940.225 486.983 940.225 486.416 940.311C434.489 943.783 381.995 938.409 331.97 924.854C330.326 924.362 329.329 922.706 329.822 921.05C330.154 919.641 331.392 918.736 332.801 918.736ZM567.909 921.543C569.399 921.543 570.642 922.454 570.974 923.863C571.387 925.513 570.316 927.249 568.66 927.587C567.004 928.074 565.349 927.003 564.936 925.353C564.535 923.691 565.52 922.041 567.176 921.629C567.422 921.543 567.675 921.543 567.909 921.543ZM504.089 932.628C505.745 932.628 507.074 933.866 507.235 935.43C507.401 937.091 506.158 938.661 504.427 938.827C502.772 939.073 501.202 937.756 501.036 936.014C500.87 934.359 502.119 932.789 503.843 932.628C503.929 932.628 504.021 932.628 504.089 932.628Z" fill="url(#paint27_linear)"/>
<defs>
<linearGradient id="paint0_linear" x1="-1562.94" y1="1215.49" x2="2370.61" y2="-821.848" gradientUnits="userSpaceOnUse">
<stop stop-color="#F2FFFF"/>
<stop offset="0.4628" stop-color="#0AA9CC"/>
<stop offset="1" stop-color="#00439F"/>
</linearGradient>
<linearGradient id="paint1_linear" x1="-1393.56" y1="1542.46" x2="2539.91" y2="-494.839" gradientUnits="userSpaceOnUse">
<stop stop-color="#F2FFFF"/>
<stop offset="0.4628" stop-color="#0AA9CC"/>
<stop offset="1" stop-color="#00439F"/>
</linearGradient>
<linearGradient id="paint2_linear" x1="-1481.17" y1="1373.4" x2="2452.4" y2="-663.947" gradientUnits="userSpaceOnUse">
<stop stop-color="#F2FFFF"/>
<stop offset="0.4628" stop-color="#0AA9CC"/>
<stop offset="1" stop-color="#00439F"/>
</linearGradient>
<linearGradient id="paint3_linear" x1="-1551.06" y1="1238.52" x2="2382.58" y2="-798.867" gradientUnits="userSpaceOnUse">
<stop stop-color="#F2FFFF"/>
<stop offset="0.4628" stop-color="#0AA9CC"/>
<stop offset="1" stop-color="#00439F"/>
</linearGradient>
<linearGradient id="paint4_linear" x1="-1398.84" y1="1532.32" x2="2534.73" y2="-505.03" gradientUnits="userSpaceOnUse">
<stop stop-color="#F2FFFF"/>
<stop offset="0.4628" stop-color="#0AA9CC"/>
<stop offset="1" stop-color="#00439F"/>
</linearGradient>
<linearGradient id="paint5_linear" x1="-1329.02" y1="1667.25" x2="2604.65" y2="-370.153" gradientUnits="userSpaceOnUse">
<stop stop-color="#F2FFFF"/>
<stop offset="0.4628" stop-color="#0AA9CC"/>
<stop offset="1" stop-color="#00439F"/>
</linearGradient>
<linearGradient id="paint6_linear" x1="-1377.76" y1="1477.8" x2="681.302" y2="-45.689" gradientUnits="userSpaceOnUse">
<stop stop-color="#F2FFFF"/>
<stop offset="0.4628" stop-color="#0AA9CC"/>
<stop offset="1" stop-color="#00439F"/>
</linearGradient>
<linearGradient id="paint7_linear" x1="-1435.45" y1="1399.79" x2="623.593" y2="-123.685" gradientUnits="userSpaceOnUse">
<stop stop-color="#F2FFFF"/>
<stop offset="0.4628" stop-color="#0AA9CC"/>
<stop offset="1" stop-color="#00439F"/>
</linearGradient>
<linearGradient id="paint8_linear" x1="-1162.66" y1="1768.56" x2="896.43" y2="245.06" gradientUnits="userSpaceOnUse">
<stop stop-color="#F2FFFF"/>
<stop offset="0.4628" stop-color="#0AA9CC"/>
<stop offset="1" stop-color="#00439F"/>
</linearGradient>
<linearGradient id="paint9_linear" x1="-1123.22" y1="1821.88" x2="935.894" y2="298.359" gradientUnits="userSpaceOnUse">
<stop stop-color="#F2FFFF"/>
<stop offset="0.4628" stop-color="#0AA9CC"/>
<stop offset="1" stop-color="#00439F"/>
</linearGradient>
<linearGradient id="paint10_linear" x1="-1542.42" y1="1255.12" x2="2391.14" y2="-782.228" gradientUnits="userSpaceOnUse">
<stop stop-color="#F2FFFF"/>
<stop offset="0.4628" stop-color="#0AA9CC"/>
<stop offset="1" stop-color="#00439F"/>
</linearGradient>
<linearGradient id="paint11_linear" x1="-1539.63" y1="1260.86" x2="2394.26" y2="-776.656" gradientUnits="userSpaceOnUse">
<stop stop-color="#F2FFFF"/>
<stop offset="0.4628" stop-color="#0AA9CC"/>
<stop offset="1" stop-color="#00439F"/>
</linearGradient>
<linearGradient id="paint12_linear" x1="-1572.98" y1="1196.53" x2="2360.95" y2="-841.006" gradientUnits="userSpaceOnUse">
<stop stop-color="#F2FFFF"/>
<stop offset="0.4628" stop-color="#0AA9CC"/>
<stop offset="1" stop-color="#00439F"/>
</linearGradient>
<linearGradient id="paint13_linear" x1="-1575.62" y1="1190.63" x2="2357.63" y2="-846.552" gradientUnits="userSpaceOnUse">
<stop stop-color="#F2FFFF"/>
<stop offset="0.4628" stop-color="#0AA9CC"/>
<stop offset="1" stop-color="#00439F"/>
</linearGradient>
<linearGradient id="paint14_linear" x1="-1401.92" y1="1526.38" x2="2531.63" y2="-510.953" gradientUnits="userSpaceOnUse">
<stop stop-color="#F2FFFF"/>
<stop offset="0.4628" stop-color="#0AA9CC"/>
<stop offset="1" stop-color="#00439F"/>
</linearGradient>
<linearGradient id="paint15_linear" x1="-1339.39" y1="1647.44" x2="2594.49" y2="-390.064" gradientUnits="userSpaceOnUse">
<stop stop-color="#F2FFFF"/>
<stop offset="0.4628" stop-color="#0AA9CC"/>
<stop offset="1" stop-color="#00439F"/>
</linearGradient>
<linearGradient id="paint16_linear" x1="-1395.38" y1="1539.86" x2="2539.02" y2="-497.914" gradientUnits="userSpaceOnUse">
<stop stop-color="#F2FFFF"/>
<stop offset="0.4628" stop-color="#0AA9CC"/>
<stop offset="1" stop-color="#00439F"/>
</linearGradient>
<linearGradient id="paint17_linear" x1="-1462.03" y1="1409.79" x2="2471" y2="-627.284" gradientUnits="userSpaceOnUse">
<stop stop-color="#F2FFFF"/>
<stop offset="0.4628" stop-color="#0AA9CC"/>
<stop offset="1" stop-color="#00439F"/>
</linearGradient>
<linearGradient id="paint18_linear" x1="-1342.57" y1="1524.73" x2="716.05" y2="1.56085" gradientUnits="userSpaceOnUse">
<stop stop-color="#F2FFFF"/>
<stop offset="0.4628" stop-color="#0AA9CC"/>
<stop offset="1" stop-color="#00439F"/>
</linearGradient>
<linearGradient id="paint19_linear" x1="-1361.92" y1="1499.18" x2="697.116" y2="-24.2913" gradientUnits="userSpaceOnUse">
<stop stop-color="#F2FFFF"/>
<stop offset="0.4628" stop-color="#0AA9CC"/>
<stop offset="1" stop-color="#00439F"/>
</linearGradient>
<linearGradient id="paint20_linear" x1="-1401.2" y1="1446.12" x2="657.862" y2="-77.3608" gradientUnits="userSpaceOnUse">
<stop stop-color="#F2FFFF"/>
<stop offset="0.4628" stop-color="#0AA9CC"/>
<stop offset="1" stop-color="#00439F"/>
</linearGradient>
<linearGradient id="paint21_linear" x1="-1199.02" y1="1719.37" x2="860.028" y2="195.897" gradientUnits="userSpaceOnUse">
<stop stop-color="#F2FFFF"/>
<stop offset="0.4628" stop-color="#0AA9CC"/>
<stop offset="1" stop-color="#00439F"/>
</linearGradient>
<linearGradient id="paint22_linear" x1="-1336.02" y1="1534.8" x2="723.446" y2="11.0038" gradientUnits="userSpaceOnUse">
<stop stop-color="#F2FFFF"/>
<stop offset="0.4628" stop-color="#0AA9CC"/>
<stop offset="1" stop-color="#00439F"/>
</linearGradient>
<linearGradient id="paint23_linear" x1="-1973.76" y1="1667.96" x2="1673.93" y2="-742.125" gradientUnits="userSpaceOnUse">
<stop stop-color="white"/>
<stop offset="0.1396" stop-color="#FAFAFA"/>
<stop offset="0.3023" stop-color="#ECECEC"/>
<stop offset="0.4765" stop-color="#D5D5D6"/>
<stop offset="0.6589" stop-color="#B4B5B6"/>
<stop offset="0.8457" stop-color="#8A8C8D"/>
<stop offset="1" stop-color="#626466"/>
</linearGradient>
<linearGradient id="paint24_linear" x1="-1748.99" y1="2008.25" x2="1898.78" y2="-401.877" gradientUnits="userSpaceOnUse">
<stop stop-color="white"/>
<stop offset="0.1396" stop-color="#FAFAFA"/>
<stop offset="0.3023" stop-color="#ECECEC"/>
<stop offset="0.4765" stop-color="#D5D5D6"/>
<stop offset="0.6589" stop-color="#B4B5B6"/>
<stop offset="0.8457" stop-color="#8A8C8D"/>
<stop offset="1" stop-color="#626466"/>
</linearGradient>
<linearGradient id="paint25_linear" x1="-1985.45" y1="1650.25" x2="1662.24" y2="-759.831" gradientUnits="userSpaceOnUse">
<stop stop-color="white"/>
<stop offset="0.1396" stop-color="#FAFAFA"/>
<stop offset="0.3023" stop-color="#ECECEC"/>
<stop offset="0.4765" stop-color="#D5D5D6"/>
<stop offset="0.6589" stop-color="#B4B5B6"/>
<stop offset="0.8457" stop-color="#8A8C8D"/>
<stop offset="1" stop-color="#626466"/>
</linearGradient>
<linearGradient id="paint26_linear" x1="-1853.5" y1="1850" x2="1794.21" y2="-560.094" gradientUnits="userSpaceOnUse">
<stop stop-color="white"/>
<stop offset="0.1396" stop-color="#FAFAFA"/>
<stop offset="0.3023" stop-color="#ECECEC"/>
<stop offset="0.4765" stop-color="#D5D5D6"/>
<stop offset="0.6589" stop-color="#B4B5B6"/>
<stop offset="0.8457" stop-color="#8A8C8D"/>
<stop offset="1" stop-color="#626466"/>
</linearGradient>
<linearGradient id="paint27_linear" x1="-1718.52" y1="2054.32" x2="1929.21" y2="-355.788" gradientUnits="userSpaceOnUse">
<stop stop-color="white"/>
<stop offset="0.1396" stop-color="#FAFAFA"/>
<stop offset="0.3023" stop-color="#ECECEC"/>
<stop offset="0.4765" stop-color="#D5D5D6"/>
<stop offset="0.6589" stop-color="#B4B5B6"/>
<stop offset="0.8457" stop-color="#8A8C8D"/>
<stop offset="1" stop-color="#626466"/>
</linearGradient>
</defs>
</svg>
